<?xml version="1.0" standalone="no"?>
<!DOCTYPE svg PUBLIC "-//W3C//DTD SVG 20010904//EN"
 "http://www.w3.org/TR/2001/REC-SVG-20010904/DTD/svg10.dtd">
<svg version="1.0" xmlns="http://www.w3.org/2000/svg"
 width="720.000000pt" height="720.000000pt" viewBox="0 0 720.000000 720.000000"
 preserveAspectRatio="xMidYMid meet">
<metadata>
Created by potrace 1.14, written by Peter Selinger 2001-2017
</metadata>
<g transform="translate(0.000000,720.000000) scale(0.100000,-0.100000)"
fill="#000000" stroke="none">
<path d="M4130 7183 c-36 -8 -74 -16 -85 -18 -70 -15 -244 -104 -316 -162 -53
-42 -189 -186 -189 -199 0 -3 -9 -18 -19 -32 -78 -110 -136 -293 -146 -462 -8
-131 -9 -5460 -1 -5505 16 -95 21 -116 42 -183 9 -29 21 -55 25 -58 5 -3 9
-12 9 -20 0 -19 85 -159 124 -204 119 -136 241 -223 391 -279 33 -13 65 -24
70 -25 6 -2 21 -6 35 -9 109 -29 298 -31 410 -6 90 20 94 21 125 34 81 33 152
69 206 106 70 47 229 203 229 224 0 7 7 16 16 19 8 3 12 10 9 16 -3 5 -2 10 3
10 14 0 88 157 111 235 21 74 29 113 30 156 1 26 1 26 89 27 48 0 101 3 117 6
17 3 46 8 65 11 77 13 289 98 310 124 3 3 25 20 50 36 60 41 159 142 213 217
38 54 99 167 98 183 0 2 8 25 19 50 33 77 49 190 46 315 -4 107 -6 129 -20
187 -4 19 2 24 47 39 47 15 120 48 187 85 193 106 377 355 420 569 1 3 7 31
15 62 16 70 13 281 -5 353 -43 171 -109 301 -220 429 -37 42 -49 54 -73 71
-21 15 -21 15 -2 47 10 18 22 35 26 38 27 20 120 236 135 315 15 81 18 111 18
195 1 125 -8 190 -40 286 -36 107 -81 194 -144 279 -39 52 -171 175 -225 210
-65 41 -195 105 -215 105 -12 0 -12 4 4 70 4 14 8 44 10 66 2 23 6 46 8 50 7
12 1 162 -7 211 -4 21 -8 45 -9 53 -13 84 -91 274 -132 321 -8 8 -14 19 -14
23 0 4 -6 13 -12 20 -7 8 -33 37 -57 66 -94 111 -248 212 -401 264 -82 27
-113 33 -210 42 -36 4 -67 8 -69 10 -3 2 -6 30 -7 62 -3 51 -13 130 -20 157
-4 15 -13 53 -18 74 -5 20 -36 94 -68 156 -80 159 -239 314 -414 403 -51 26
-150 60 -218 74 -80 17 -282 18 -356 1z"/>
<path d="M1766 5843 c-1 -2 -26 -4 -55 -5 l-53 -3 6 -76 5 -76 -35 -17 -35
-16 -48 40 c-26 22 -51 40 -55 40 -10 0 -23 -14 -66 -70 -19 -25 -39 -48 -45
-52 -6 -5 11 -26 42 -53 50 -45 51 -47 37 -73 -8 -15 -14 -35 -14 -44 0 -23
-9 -27 -76 -34 -32 -3 -62 -8 -66 -10 -5 -3 -5 -33 -2 -67 4 -34 8 -73 9 -87
1 -27 -1 -26 96 -18 l46 4 23 -48 22 -47 -36 -42 c-20 -24 -36 -47 -36 -53 1
-6 31 -35 67 -64 55 -44 69 -51 78 -40 5 8 24 31 40 50 30 36 31 36 73 25 46
-12 51 -20 55 -94 1 -30 7 -43 17 -44 21 -2 79 0 115 5 17 2 36 4 43 5 9 1 11
18 7 65 l-4 64 42 22 c23 12 45 26 48 31 3 5 28 -9 56 -31 28 -22 53 -40 55
-40 2 0 30 31 61 69 l57 69 -43 34 c-68 53 -67 51 -55 97 6 22 16 41 22 42 6
0 23 3 39 5 15 2 39 6 55 7 29 4 29 3 18 112 -2 28 -5 55 -5 61 -1 11 -97 10
-128 -1 -7 -2 -22 14 -33 36 -20 38 -20 40 -3 64 10 13 21 25 26 25 4 0 7 6 7
14 0 8 7 16 15 20 26 9 17 22 -56 82 -59 48 -73 55 -80 42 -4 -8 -23 -32 -42
-52 -33 -37 -33 -38 -75 -26 -24 6 -45 16 -47 23 -3 10 -12 91 -15 130 0 7
-67 7 -74 0z"/>
<path d="M1113 5083 l-30 -97 -49 -3 c-27 -2 -60 -4 -73 -6 -21 -2 -30 10 -72
91 -26 52 -49 96 -52 98 -3 3 -235 -110 -244 -120 -2 -1 20 -47 47 -101 l50
-98 -33 -38 c-17 -20 -37 -39 -44 -42 -6 -3 -53 8 -104 24 -89 28 -104 28
-110 -1 -4 -23 -11 -47 -38 -128 -18 -51 -30 -96 -27 -100 3 -5 40 -19 83 -32
43 -13 81 -26 84 -29 4 -3 9 -43 12 -87 l5 -81 -94 -48 c-52 -27 -94 -50 -94
-51 0 -4 120 -238 125 -242 4 -5 150 70 153 80 8 18 40 6 81 -33 25 -22 50
-43 58 -47 10 -6 7 -25 -13 -87 -14 -44 -27 -87 -29 -96 -3 -13 25 -25 123
-57 69 -23 128 -39 132 -37 4 3 20 45 35 95 l29 90 35 0 c20 0 52 1 71 2 34 3
36 1 75 -72 22 -42 43 -81 47 -87 5 -7 39 6 100 38 51 27 106 54 121 60 22 9
26 15 21 33 -4 11 -9 23 -13 26 -3 3 -21 35 -38 72 -26 54 -30 69 -19 75 15 8
74 79 91 108 9 16 16 15 94 -10 82 -27 115 -26 116 1 1 5 15 55 33 111 18 55
32 106 32 111 0 10 -45 30 -87 38 -12 2 -41 13 -65 23 -42 18 -44 21 -46 62
-1 24 -3 53 -4 64 -2 16 13 29 72 60 42 22 81 44 88 48 8 6 -6 42 -49 127 -33
66 -64 120 -68 120 -5 0 -47 -21 -95 -46 l-86 -45 -50 38 c-27 21 -49 43 -50
49 0 6 9 37 21 70 11 32 22 64 23 69 1 6 5 16 9 23 5 6 6 16 2 22 -4 7 -241
90 -258 90 -1 0 -17 -44 -34 -97z"/>
<path d="M1556 3948 c-10 -6 -13 -44 -13 -153 0 -80 -2 -148 -5 -151 -3 -3
-35 -16 -71 -29 -36 -13 -77 -31 -91 -40 l-26 -18 -120 118 -120 118 -21 -19
c-28 -25 -229 -225 -252 -252 -19 -21 -18 -22 85 -124 143 -145 134 -126 98
-194 -16 -32 -30 -66 -30 -76 0 -20 2 -20 -183 -20 -80 0 -121 -4 -130 -12 -9
-9 -12 -63 -10 -202 1 -104 2 -192 2 -195 1 -4 49 -7 109 -7 196 0 187 1 190
-27 1 -20 39 -126 68 -192 3 -6 -45 -61 -106 -123 -110 -110 -111 -112 -93
-132 29 -33 227 -231 252 -252 l22 -20 109 109 109 108 68 -30 c78 -35 103
-45 121 -49 8 -1 16 -5 19 -8 3 -3 6 -69 6 -146 0 -77 4 -143 9 -146 7 -5 190
-7 349 -5 l56 1 -1 146 -1 146 25 10 c14 6 30 11 35 12 6 1 36 14 68 29 41 19
64 24 75 18 10 -5 57 -50 106 -100 49 -50 92 -91 96 -91 5 0 270 261 288 284
1 2 -43 49 -98 104 -55 56 -100 104 -100 107 0 4 16 39 35 79 19 40 36 81 38
92 9 47 20 74 31 75 6 0 71 1 144 1 115 0 132 2 133 17 1 9 2 102 3 208 l1
192 -140 0 c-77 -1 -148 -1 -158 0 -10 1 -22 13 -28 29 -5 15 -24 55 -40 89
l-31 62 107 107 c59 58 105 107 103 109 -14 16 -233 236 -257 260 l-31 29
-113 -112 -113 -113 -49 27 c-28 14 -51 25 -53 25 -1 -1 -19 3 -40 9 l-37 12
0 144 c0 80 -2 149 -5 154 -7 11 -376 18 -394 8z"/>
</g>
</svg>
